<svg width="482" height="698" viewBox="0 0 482 698" fill="none" xmlns="http://www.w3.org/2000/svg">
<path d="M253.191 78.7742C313.626 45.4433 388.429 67.3506 420.27 127.705C426.41 139.343 430.501 151.562 432.677 163.942C454.485 150.831 480.734 144.37 508.429 147.049C577.206 153.704 628.854 214.202 623.787 282.176C620.487 326.454 593.935 362.98 556.815 381.228C590.638 404.435 612.626 443.35 611.946 486.718C610.876 554.953 554.096 608.369 485.125 606.026C450.429 604.847 419.258 589.781 396.981 566.413C388.788 596.062 369.976 622.989 342.101 640.718C283.791 677.805 207.916 660.598 172.631 602.286C148.683 562.71 149.586 514.372 170.868 475.8C129.56 473.714 90.6472 450.722 69.9275 411.447C38.0871 351.092 61.2681 275.144 121.703 241.813C144.287 229.358 168.877 224.617 192.482 226.713C175.499 170.892 199.815 108.212 253.191 78.7742Z" fill="url(#paint0_radial_1047_504)"/>
<g filter="url(#filter0_d_1047_504)">
<ellipse cx="286.866" cy="304.909" rx="36.6308" ry="42.9103" transform="rotate(-19.701 286.866 304.909)" fill="white"/>
<ellipse cx="286.866" cy="304.909" rx="36.6308" ry="42.9103" transform="rotate(-19.701 286.866 304.909)" fill="url(#paint1_radial_1047_504)"/>
</g>
<g filter="url(#filter1_d_1047_504)">
<ellipse cx="176.511" cy="344.44" rx="36.6308" ry="42.9103" transform="rotate(-19.701 176.511 344.44)" fill="white"/>
<ellipse cx="176.511" cy="344.44" rx="36.6308" ry="42.9103" transform="rotate(-19.701 176.511 344.44)" fill="url(#paint2_radial_1047_504)"/>
</g>
<ellipse cx="169.887" cy="342.154" rx="22.003" ry="27.6068" transform="rotate(-13.3373 169.887 342.154)" fill="#232323"/>
<path d="M277.29 284.44L265.418 306.365L286.971 318.187" stroke="black" stroke-width="6" stroke-linecap="round" stroke-linejoin="round"/>
<ellipse cx="161.183" cy="334.949" rx="7.76091" ry="10.3479" fill="#F6F6F6"/>
<rect x="262.387" y="381.305" width="41.2549" height="31.4263" rx="7" transform="rotate(-29.1431 262.387 381.305)" fill="#1A1A1A"/>
<defs>
<filter id="filter0_d_1047_504" x="249.457" y="260.656" width="78.8164" height="88.5078" filterUnits="userSpaceOnUse" color-interpolation-filters="sRGB">
<feFlood flood-opacity="0" result="BackgroundImageFix"/>
<feColorMatrix in="SourceAlpha" type="matrix" values="0 0 0 0 0 0 0 0 0 0 0 0 0 0 0 0 0 0 127 0" result="hardAlpha"/>
<feOffset dx="2"/>
<feGaussianBlur stdDeviation="1"/>
<feComposite in2="hardAlpha" operator="out"/>
<feColorMatrix type="matrix" values="0 0 0 0 0 0 0 0 0 0 0 0 0 0 0 0 0 0 0.1 0"/>
<feBlend mode="normal" in2="BackgroundImageFix" result="effect1_dropShadow_1047_504"/>
<feBlend mode="normal" in="SourceGraphic" in2="effect1_dropShadow_1047_504" result="shape"/>
</filter>
<filter id="filter1_d_1047_504" x="139.102" y="300.188" width="78.8164" height="88.5078" filterUnits="userSpaceOnUse" color-interpolation-filters="sRGB">
<feFlood flood-opacity="0" result="BackgroundImageFix"/>
<feColorMatrix in="SourceAlpha" type="matrix" values="0 0 0 0 0 0 0 0 0 0 0 0 0 0 0 0 0 0 127 0" result="hardAlpha"/>
<feOffset dx="2"/>
<feGaussianBlur stdDeviation="1"/>
<feComposite in2="hardAlpha" operator="out"/>
<feColorMatrix type="matrix" values="0 0 0 0 0 0 0 0 0 0 0 0 0 0 0 0 0 0 0.1 0"/>
<feBlend mode="normal" in2="BackgroundImageFix" result="effect1_dropShadow_1047_504"/>
<feBlend mode="normal" in="SourceGraphic" in2="effect1_dropShadow_1047_504" result="shape"/>
</filter>
<radialGradient id="paint0_radial_1047_504" cx="0" cy="0" r="1" gradientUnits="userSpaceOnUse" gradientTransform="translate(441.193 314.895) rotate(94.728) scale(316.77 316.52)">
<stop offset="0.0256406" stop-color="#FF3898"/>
<stop offset="1" stop-color="#FFB6D9"/>
</radialGradient>
<radialGradient id="paint1_radial_1047_504" cx="0" cy="0" r="1" gradientUnits="userSpaceOnUse" gradientTransform="translate(284.481 298.693) rotate(58.1907) scale(62.8874 75.5254)">
<stop stop-color="white"/>
<stop offset="1" stop-color="#FFC8E3"/>
</radialGradient>
<radialGradient id="paint2_radial_1047_504" cx="0" cy="0" r="1" gradientUnits="userSpaceOnUse" gradientTransform="translate(174.126 338.225) rotate(58.1907) scale(62.8874 75.5254)">
<stop stop-color="white"/>
<stop offset="1" stop-color="#FFC8E3"/>
</radialGradient>
</defs>
</svg>
