<svg width="205" height="281" viewBox="0 0 205 281" fill="none" xmlns="http://www.w3.org/2000/svg">
<path d="M65.2837 26.6088C99.1944 15.5542 135.844 34.6901 147.143 69.3501C154.02 90.4451 149.92 112.428 138.014 128.897C157.339 135.184 173.606 150.528 180.483 171.623C191.782 206.283 173.452 243.343 139.541 254.398C105.63 265.452 68.9802 246.316 57.6814 211.656C50.8048 190.561 54.9032 168.577 66.8098 152.109C47.4851 145.821 31.2179 130.477 24.3412 109.382C13.0425 74.7224 31.373 37.6635 65.2837 26.6088Z" fill="url(#paint0_radial_1047_495)"/>
<g filter="url(#filter0_d_1047_495)">
<ellipse cx="84.8078" cy="61.5482" rx="12.8793" ry="15.0871" transform="rotate(-14.8494 84.8078 61.5482)" fill="white"/>
<ellipse cx="84.8078" cy="61.5482" rx="12.8793" ry="15.0871" transform="rotate(-14.8494 84.8078 61.5482)" fill="url(#paint1_radial_1047_495)"/>
</g>
<g filter="url(#filter1_d_1047_495)">
<ellipse cx="47.5617" cy="75.0013" rx="12.8793" ry="15.0871" transform="rotate(-14.8494 47.5617 75.0013)" fill="white"/>
<ellipse cx="47.5617" cy="75.0013" rx="12.8793" ry="15.0871" transform="rotate(-14.8494 47.5617 75.0013)" fill="url(#paint2_radial_1047_495)"/>
</g>
<path d="M41.1055 74.0509C40.8777 70.639 44.9756 64.7196 51.8373 69.3583" stroke="black" stroke-width="3" stroke-linecap="round" stroke-linejoin="round"/>
<path d="M78.1719 60.1916C77.9441 56.7796 82.042 50.8602 88.9037 55.4989" stroke="black" stroke-width="3" stroke-linecap="round" stroke-linejoin="round"/>
<defs>
<filter id="filter0_d_1047_495" x="71.7695" y="44.5938" width="30.0781" height="33.9062" filterUnits="userSpaceOnUse" color-interpolation-filters="sRGB">
<feFlood flood-opacity="0" result="BackgroundImageFix"/>
<feColorMatrix in="SourceAlpha" type="matrix" values="0 0 0 0 0 0 0 0 0 0 0 0 0 0 0 0 0 0 127 0" result="hardAlpha"/>
<feOffset dx="2"/>
<feGaussianBlur stdDeviation="1"/>
<feComposite in2="hardAlpha" operator="out"/>
<feColorMatrix type="matrix" values="0 0 0 0 0 0 0 0 0 0 0 0 0 0 0 0 0 0 0.1 0"/>
<feBlend mode="normal" in2="BackgroundImageFix" result="effect1_dropShadow_1047_495"/>
<feBlend mode="normal" in="SourceGraphic" in2="effect1_dropShadow_1047_495" result="shape"/>
</filter>
<filter id="filter1_d_1047_495" x="34.5234" y="58.0469" width="30.0781" height="33.9062" filterUnits="userSpaceOnUse" color-interpolation-filters="sRGB">
<feFlood flood-opacity="0" result="BackgroundImageFix"/>
<feColorMatrix in="SourceAlpha" type="matrix" values="0 0 0 0 0 0 0 0 0 0 0 0 0 0 0 0 0 0 127 0" result="hardAlpha"/>
<feOffset dx="2"/>
<feGaussianBlur stdDeviation="1"/>
<feComposite in2="hardAlpha" operator="out"/>
<feColorMatrix type="matrix" values="0 0 0 0 0 0 0 0 0 0 0 0 0 0 0 0 0 0 0.1 0"/>
<feBlend mode="normal" in2="BackgroundImageFix" result="effect1_dropShadow_1047_495"/>
<feBlend mode="normal" in="SourceGraphic" in2="effect1_dropShadow_1047_495" result="shape"/>
</filter>
<radialGradient id="paint0_radial_1047_495" cx="0" cy="0" r="1" gradientUnits="userSpaceOnUse" gradientTransform="translate(92.7673 130.173) rotate(49.165) scale(110.924 105.452)">
<stop stop-color="#FCD22E"/>
<stop offset="1" stop-color="#FCEAA3"/>
</radialGradient>
<radialGradient id="paint1_radial_1047_495" cx="0" cy="0" r="1" gradientUnits="userSpaceOnUse" gradientTransform="translate(83.9693 59.3627) rotate(58.1907) scale(22.111 26.5545)">
<stop stop-color="white"/>
<stop offset="1" stop-color="#FEF1BE"/>
</radialGradient>
<radialGradient id="paint2_radial_1047_495" cx="0" cy="0" r="1" gradientUnits="userSpaceOnUse" gradientTransform="translate(46.7232 72.8158) rotate(58.1907) scale(22.111 26.5545)">
<stop stop-color="white"/>
<stop offset="1" stop-color="#FEF1BE"/>
</radialGradient>
</defs>
</svg>
