<svg width="352" height="209" viewBox="0 0 352 209" fill="none" xmlns="http://www.w3.org/2000/svg">
<path d="M165.61 22.2437C256.65 10.5048 339.971 74.791 351.71 165.832C351.711 165.835 351.711 165.839 351.712 165.842L22.0233 208.355C22.0228 208.351 22.0223 208.348 22.0219 208.344C10.2824 117.303 74.5689 33.9832 165.61 22.2437Z" fill="url(#paint0_radial_1047_705)"/>
<g filter="url(#filter0_d_1047_705)">
<ellipse cx="204.595" cy="72.3587" rx="20.3709" ry="23.863" transform="rotate(-7.34761 204.595 72.3587)" fill="url(#paint1_radial_1047_705)"/>
</g>
<ellipse cx="198.953" cy="69.5657" rx="11.6405" ry="15.7147" transform="rotate(-7.34761 198.953 69.5657)" fill="#232323"/>
<ellipse cx="194.594" cy="63.0785" rx="3.49215" ry="4.07418" transform="rotate(-7.34761 194.594 63.0785)" fill="#F6F6F6"/>
<circle cx="198.377" cy="69.6413" r="1.74608" transform="rotate(-7.34761 198.377 69.6413)" fill="#F6F6F6"/>
<g filter="url(#filter1_d_1047_705)">
<ellipse cx="139.943" cy="80.6947" rx="20.3709" ry="23.863" transform="rotate(-7.34761 139.943 80.6947)" fill="url(#paint2_radial_1047_705)"/>
</g>
<ellipse cx="134.316" cy="77.886" rx="11.6405" ry="15.7147" transform="rotate(-7.34761 134.316 77.886)" fill="#232323"/>
<ellipse cx="128.942" cy="72.7113" rx="3.49215" ry="4.07418" transform="rotate(-7.34761 128.942 72.7113)" fill="#F6F6F6"/>
<circle cx="132.717" cy="79.2741" r="1.74608" transform="rotate(-7.34761 132.717 79.2741)" fill="#F6F6F6"/>
<defs>
<filter id="filter0_d_1047_705" x="184.16" y="46.5469" width="44.8711" height="51.625" filterUnits="userSpaceOnUse" color-interpolation-filters="sRGB">
<feFlood flood-opacity="0" result="BackgroundImageFix"/>
<feColorMatrix in="SourceAlpha" type="matrix" values="0 0 0 0 0 0 0 0 0 0 0 0 0 0 0 0 0 0 127 0" result="hardAlpha"/>
<feOffset dx="2"/>
<feGaussianBlur stdDeviation="1"/>
<feComposite in2="hardAlpha" operator="out"/>
<feColorMatrix type="matrix" values="0 0 0 0 0 0 0 0 0 0 0 0 0 0 0 0 0 0 0.1 0"/>
<feBlend mode="normal" in2="BackgroundImageFix" result="effect1_dropShadow_1047_705"/>
<feBlend mode="normal" in="SourceGraphic" in2="effect1_dropShadow_1047_705" result="shape"/>
</filter>
<filter id="filter1_d_1047_705" x="119.508" y="54.8828" width="44.8711" height="51.625" filterUnits="userSpaceOnUse" color-interpolation-filters="sRGB">
<feFlood flood-opacity="0" result="BackgroundImageFix"/>
<feColorMatrix in="SourceAlpha" type="matrix" values="0 0 0 0 0 0 0 0 0 0 0 0 0 0 0 0 0 0 127 0" result="hardAlpha"/>
<feOffset dx="2"/>
<feGaussianBlur stdDeviation="1"/>
<feComposite in2="hardAlpha" operator="out"/>
<feColorMatrix type="matrix" values="0 0 0 0 0 0 0 0 0 0 0 0 0 0 0 0 0 0 0.1 0"/>
<feBlend mode="normal" in2="BackgroundImageFix" result="effect1_dropShadow_1047_705"/>
<feBlend mode="normal" in="SourceGraphic" in2="effect1_dropShadow_1047_705" result="shape"/>
</filter>
<radialGradient id="paint0_radial_1047_705" cx="0" cy="0" r="1" gradientUnits="userSpaceOnUse" gradientTransform="translate(191.864 221.3) rotate(-142.346) scale(148.164 296.329)">
<stop stop-color="#2226F7"/>
<stop offset="1" stop-color="#7275FF"/>
</radialGradient>
<radialGradient id="paint1_radial_1047_705" cx="0" cy="0" r="1" gradientUnits="userSpaceOnUse" gradientTransform="translate(198.775 61.8823) rotate(59.4898) scale(37.8316 63.6062)">
<stop stop-color="white"/>
<stop offset="1" stop-color="#BCBEFF"/>
</radialGradient>
<radialGradient id="paint2_radial_1047_705" cx="0" cy="0" r="1" gradientUnits="userSpaceOnUse" gradientTransform="translate(134.123 70.2182) rotate(59.4898) scale(37.8316 63.6062)">
<stop stop-color="white"/>
<stop offset="1" stop-color="#BCBEFF"/>
</radialGradient>
</defs>
</svg>
