<svg width="383" height="384" viewBox="0 0 383 384" fill="none" xmlns="http://www.w3.org/2000/svg">
<path d="M138.891 43.7516C172.043 25.4681 213.076 37.4854 230.542 70.593C233.91 76.9761 236.153 83.6774 237.347 90.4676C249.31 83.2753 263.708 79.7315 278.9 81.2013C316.628 84.8515 344.96 118.038 342.181 155.325C340.37 179.615 325.803 199.652 305.44 209.661C323.996 222.391 336.059 243.739 335.686 267.53C335.099 304.96 303.952 334.262 266.118 332.977C247.086 332.33 229.986 324.065 217.766 311.247C213.272 327.51 202.952 342.28 187.662 352.005C155.676 372.349 114.055 362.911 94.699 330.924C81.5619 309.213 82.0574 282.696 93.733 261.537C71.0729 260.393 49.7261 247.781 38.36 226.236C20.8941 193.129 33.6095 151.468 66.761 133.184C79.1495 126.351 92.639 123.75 105.588 124.9C96.2737 94.2805 109.613 59.8991 138.891 43.7516Z" fill="url(#paint0_radial_1047_722)"/>
<g filter="url(#filter0_d_1047_722)">
<ellipse cx="157.361" cy="167.809" rx="20.0938" ry="23.5385" transform="rotate(-19.701 157.361 167.809)" fill="white"/>
<ellipse cx="157.361" cy="167.809" rx="20.0938" ry="23.5385" transform="rotate(-19.701 157.361 167.809)" fill="url(#paint1_radial_1047_722)"/>
</g>
<g filter="url(#filter1_d_1047_722)">
<ellipse cx="96.8254" cy="189.496" rx="20.0938" ry="23.5385" transform="rotate(-19.701 96.8254 189.496)" fill="white"/>
<ellipse cx="96.8254" cy="189.496" rx="20.0938" ry="23.5385" transform="rotate(-19.701 96.8254 189.496)" fill="url(#paint2_radial_1047_722)"/>
</g>
<ellipse cx="93.1947" cy="188.232" rx="12.0698" ry="15.1437" transform="rotate(-13.3373 93.1947 188.232)" fill="#232323"/>
<path d="M152.108 156.569L145.596 168.595L157.419 175.08" stroke="black" stroke-width="3.29131" stroke-linecap="round" stroke-linejoin="round"/>
<ellipse cx="88.4174" cy="184.278" rx="4.25726" ry="5.67634" fill="#F6F6F6"/>
<rect x="143.934" y="209.711" width="22.6304" height="17.2389" rx="3.83986" transform="rotate(-29.1431 143.934 209.711)" fill="#1A1A1A"/>
<defs>
<filter id="filter0_d_1047_722" x="136.84" y="143.536" width="43.2333" height="48.5458" filterUnits="userSpaceOnUse" color-interpolation-filters="sRGB">
<feFlood flood-opacity="0" result="BackgroundImageFix"/>
<feColorMatrix in="SourceAlpha" type="matrix" values="0 0 0 0 0 0 0 0 0 0 0 0 0 0 0 0 0 0 127 0" result="hardAlpha"/>
<feOffset dx="1.0971"/>
<feGaussianBlur stdDeviation="0.548551"/>
<feComposite in2="hardAlpha" operator="out"/>
<feColorMatrix type="matrix" values="0 0 0 0 0 0 0 0 0 0 0 0 0 0 0 0 0 0 0.1 0"/>
<feBlend mode="normal" in2="BackgroundImageFix" result="effect1_dropShadow_1047_722"/>
<feBlend mode="normal" in="SourceGraphic" in2="effect1_dropShadow_1047_722" result="shape"/>
</filter>
<filter id="filter1_d_1047_722" x="76.3047" y="165.223" width="43.2333" height="48.5458" filterUnits="userSpaceOnUse" color-interpolation-filters="sRGB">
<feFlood flood-opacity="0" result="BackgroundImageFix"/>
<feColorMatrix in="SourceAlpha" type="matrix" values="0 0 0 0 0 0 0 0 0 0 0 0 0 0 0 0 0 0 127 0" result="hardAlpha"/>
<feOffset dx="1.0971"/>
<feGaussianBlur stdDeviation="0.548551"/>
<feComposite in2="hardAlpha" operator="out"/>
<feColorMatrix type="matrix" values="0 0 0 0 0 0 0 0 0 0 0 0 0 0 0 0 0 0 0.1 0"/>
<feBlend mode="normal" in2="BackgroundImageFix" result="effect1_dropShadow_1047_722"/>
<feBlend mode="normal" in="SourceGraphic" in2="effect1_dropShadow_1047_722" result="shape"/>
</filter>
<radialGradient id="paint0_radial_1047_722" cx="0" cy="0" r="1" gradientUnits="userSpaceOnUse" gradientTransform="translate(242.019 173.276) rotate(94.7281) scale(173.764 173.628)">
<stop offset="0.0256406" stop-color="#FF3898"/>
<stop offset="1" stop-color="#FFB6D9"/>
</radialGradient>
<radialGradient id="paint1_radial_1047_722" cx="0" cy="0" r="1" gradientUnits="userSpaceOnUse" gradientTransform="translate(156.052 164.399) rotate(58.1907) scale(34.497 41.4295)">
<stop stop-color="white"/>
<stop offset="1" stop-color="#FFC8E3"/>
</radialGradient>
<radialGradient id="paint2_radial_1047_722" cx="0" cy="0" r="1" gradientUnits="userSpaceOnUse" gradientTransform="translate(95.5172 186.086) rotate(58.1907) scale(34.497 41.4295)">
<stop stop-color="white"/>
<stop offset="1" stop-color="#FFC8E3"/>
</radialGradient>
</defs>
</svg>
