<svg width="181" height="244" viewBox="0 0 181 244" fill="none" xmlns="http://www.w3.org/2000/svg">
<path d="M93.3681 18.9575C124.083 19.8314 148.258 45.989 147.365 77.3821C146.821 96.4898 137.115 113.132 122.677 123.035C136.526 133.744 145.268 150.91 144.724 170.015C143.831 201.408 118.207 226.149 87.4929 225.275C56.7786 224.401 32.604 198.243 33.497 166.851C34.0406 147.743 43.7452 131.099 58.1834 121.196C44.3347 110.488 35.594 93.3223 36.1375 74.2174C37.0308 42.8243 62.6537 18.0838 93.3681 18.9575Z" fill="url(#paint0_radial_1068_836)"/>
<g filter="url(#filter0_d_1068_836)">
<ellipse cx="99.0578" cy="52.9646" rx="11.0953" ry="12.9974" transform="rotate(4.83595 99.0578 52.9646)" fill="white"/>
<ellipse cx="99.0578" cy="52.9646" rx="11.0953" ry="12.9974" transform="rotate(4.83595 99.0578 52.9646)" fill="url(#paint1_radial_1068_836)"/>
</g>
<g filter="url(#filter1_d_1068_836)">
<ellipse cx="64.9484" cy="53.0584" rx="11.0953" ry="12.9974" transform="rotate(4.83595 64.9484 53.0584)" fill="white"/>
<ellipse cx="64.9484" cy="53.0584" rx="11.0953" ry="12.9974" transform="rotate(4.83595 64.9484 53.0584)" fill="url(#paint2_radial_1068_836)"/>
</g>
<path d="M59.99 50.4146C60.7952 47.5809 65.8371 43.9687 70.0568 49.7225" stroke="black" stroke-width="3.82085" stroke-linecap="round" stroke-linejoin="round"/>
<path d="M94.072 49.9302C94.8773 47.0966 99.9191 43.4843 104.139 49.2381" stroke="black" stroke-width="3.82085" stroke-linecap="round" stroke-linejoin="round"/>
<defs>
<filter id="filter0_d_1068_836" x="87.9453" y="37.4293" width="27.3171" height="31.071" filterUnits="userSpaceOnUse" color-interpolation-filters="sRGB">
<feFlood flood-opacity="0" result="BackgroundImageFix"/>
<feColorMatrix in="SourceAlpha" type="matrix" values="0 0 0 0 0 0 0 0 0 0 0 0 0 0 0 0 0 0 127 0" result="hardAlpha"/>
<feOffset dx="2.54723"/>
<feGaussianBlur stdDeviation="1.27362"/>
<feComposite in2="hardAlpha" operator="out"/>
<feColorMatrix type="matrix" values="0 0 0 0 0 0 0 0 0 0 0 0 0 0 0 0 0 0 0.1 0"/>
<feBlend mode="normal" in2="BackgroundImageFix" result="effect1_dropShadow_1068_836"/>
<feBlend mode="normal" in="SourceGraphic" in2="effect1_dropShadow_1068_836" result="shape"/>
</filter>
<filter id="filter1_d_1068_836" x="53.8359" y="37.5231" width="27.3171" height="31.071" filterUnits="userSpaceOnUse" color-interpolation-filters="sRGB">
<feFlood flood-opacity="0" result="BackgroundImageFix"/>
<feColorMatrix in="SourceAlpha" type="matrix" values="0 0 0 0 0 0 0 0 0 0 0 0 0 0 0 0 0 0 127 0" result="hardAlpha"/>
<feOffset dx="2.54723"/>
<feGaussianBlur stdDeviation="1.27362"/>
<feComposite in2="hardAlpha" operator="out"/>
<feColorMatrix type="matrix" values="0 0 0 0 0 0 0 0 0 0 0 0 0 0 0 0 0 0 0.1 0"/>
<feBlend mode="normal" in2="BackgroundImageFix" result="effect1_dropShadow_1068_836"/>
<feBlend mode="normal" in="SourceGraphic" in2="effect1_dropShadow_1068_836" result="shape"/>
</filter>
<radialGradient id="paint0_radial_1068_836" cx="0" cy="0" r="1" gradientUnits="userSpaceOnUse" gradientTransform="translate(80.8894 168.682) rotate(-55.8354) scale(67.5344 88.1061)">
<stop stop-color="#11E76C"/>
<stop offset="1" stop-color="#AAEBC6"/>
</radialGradient>
<radialGradient id="paint1_radial_1068_836" cx="0" cy="0" r="1" gradientUnits="userSpaceOnUse" gradientTransform="translate(98.3354 51.0818) rotate(58.1907) scale(19.0484 22.8764)">
<stop stop-color="white"/>
<stop offset="1" stop-color="#A1FAC7"/>
</radialGradient>
<radialGradient id="paint2_radial_1068_836" cx="0" cy="0" r="1" gradientUnits="userSpaceOnUse" gradientTransform="translate(64.2261 51.1756) rotate(58.1907) scale(19.0484 22.8764)">
<stop stop-color="white"/>
<stop offset="1" stop-color="#A1FAC7"/>
</radialGradient>
</defs>
</svg>
