<svg width="304" height="307" viewBox="0 0 304 307" fill="none" xmlns="http://www.w3.org/2000/svg">
<path d="M115.56 57.2316C85.0562 56.9998 60.1476 80.488 59.9256 109.694C59.7905 127.47 68.8317 143.267 82.8064 152.961C68.6875 162.442 59.4088 178.099 59.2735 195.873C59.0515 225.079 83.6002 248.944 114.104 249.176C128.489 249.286 141.628 244.119 151.522 235.567C161.286 244.27 174.347 249.637 188.733 249.747C219.237 249.978 244.146 226.49 244.368 197.284C244.503 179.509 235.463 163.712 221.489 154.017C235.609 144.536 244.889 128.879 245.024 111.104C245.246 81.8979 220.697 58.0337 190.193 57.8019C175.808 57.6925 162.667 62.8592 152.773 71.4124C143.01 62.7079 129.948 57.341 115.56 57.2316Z" fill="url(#paint0_radial_1068_873)"/>
<g filter="url(#filter0_d_1068_873)">
<ellipse cx="194.788" cy="117.958" rx="12.7113" ry="14.8904" transform="rotate(6.89762 194.788 117.958)" fill="white"/>
<ellipse cx="194.788" cy="117.958" rx="12.7113" ry="14.8904" transform="rotate(6.89762 194.788 117.958)" fill="url(#paint1_radial_1068_873)"/>
</g>
<g filter="url(#filter1_d_1068_873)">
<ellipse cx="155.726" cy="116.669" rx="12.7113" ry="14.8904" transform="rotate(6.89762 155.726 116.669)" fill="white"/>
<ellipse cx="155.726" cy="116.669" rx="12.7113" ry="14.8904" transform="rotate(6.89762 155.726 116.669)" fill="url(#paint2_radial_1068_873)"/>
</g>
<rect x="154.648" y="104.383" width="10.3359" height="17.3403" rx="1.4234" transform="rotate(11.3139 154.648 104.383)" fill="#232323"/>
<rect x="193.594" y="105.859" width="10.3359" height="17.3403" rx="1.4234" transform="rotate(11.3139 193.594 105.859)" fill="#232323"/>
<circle cx="199.637" cy="110.217" r="2.24519" transform="rotate(-18.6861 199.637 110.217)" fill="#F6F6F6" stroke="url(#paint3_linear_1068_873)" stroke-width="0.7117"/>
<circle cx="160.7" cy="108.74" r="2.24519" transform="rotate(-18.6861 160.7 108.74)" fill="#F6F6F6" stroke="url(#paint4_linear_1068_873)" stroke-width="0.7117"/>
<defs>
<filter id="filter0_d_1068_873" x="182.043" y="101.67" width="28.339" height="32.5734" filterUnits="userSpaceOnUse" color-interpolation-filters="sRGB">
<feFlood flood-opacity="0" result="BackgroundImageFix"/>
<feColorMatrix in="SourceAlpha" type="matrix" values="0 0 0 0 0 0 0 0 0 0 0 0 0 0 0 0 0 0 127 0" result="hardAlpha"/>
<feOffset dx="1.4234"/>
<feGaussianBlur stdDeviation="0.7117"/>
<feComposite in2="hardAlpha" operator="out"/>
<feColorMatrix type="matrix" values="0 0 0 0 0 0 0 0 0 0 0 0 0 0 0 0 0 0 0.1 0"/>
<feBlend mode="normal" in2="BackgroundImageFix" result="effect1_dropShadow_1068_873"/>
<feBlend mode="normal" in="SourceGraphic" in2="effect1_dropShadow_1068_873" result="shape"/>
</filter>
<filter id="filter1_d_1068_873" x="142.98" y="100.381" width="28.339" height="32.5734" filterUnits="userSpaceOnUse" color-interpolation-filters="sRGB">
<feFlood flood-opacity="0" result="BackgroundImageFix"/>
<feColorMatrix in="SourceAlpha" type="matrix" values="0 0 0 0 0 0 0 0 0 0 0 0 0 0 0 0 0 0 127 0" result="hardAlpha"/>
<feOffset dx="1.4234"/>
<feGaussianBlur stdDeviation="0.7117"/>
<feComposite in2="hardAlpha" operator="out"/>
<feColorMatrix type="matrix" values="0 0 0 0 0 0 0 0 0 0 0 0 0 0 0 0 0 0 0.1 0"/>
<feBlend mode="normal" in2="BackgroundImageFix" result="effect1_dropShadow_1068_873"/>
<feBlend mode="normal" in="SourceGraphic" in2="effect1_dropShadow_1068_873" result="shape"/>
</filter>
<radialGradient id="paint0_radial_1068_873" cx="0" cy="0" r="1" gradientUnits="userSpaceOnUse" gradientTransform="translate(187.65 126.183) rotate(93.9606) scale(141.86 136.795)">
<stop offset="0.110577" stop-color="#FF792B"/>
<stop offset="1" stop-color="#FFB68C"/>
</radialGradient>
<radialGradient id="paint1_radial_1068_873" cx="0" cy="0" r="1" gradientUnits="userSpaceOnUse" gradientTransform="translate(193.961 115.801) rotate(58.1907) scale(21.8227 26.2083)">
<stop stop-color="white"/>
<stop offset="1" stop-color="#FEF1BE"/>
</radialGradient>
<radialGradient id="paint2_radial_1068_873" cx="0" cy="0" r="1" gradientUnits="userSpaceOnUse" gradientTransform="translate(154.898 114.512) rotate(58.1907) scale(21.8227 26.2083)">
<stop stop-color="white"/>
<stop offset="1" stop-color="#FEF1BE"/>
</radialGradient>
<linearGradient id="paint3_linear_1068_873" x1="197.036" y1="110.217" x2="202.238" y2="110.217" gradientUnits="userSpaceOnUse">
<stop offset="0.0503666" stop-color="#474AFB"/>
<stop offset="0.232942" stop-color="#BD4ABE"/>
<stop offset="0.409957" stop-color="#FCDC5D"/>
<stop offset="0.591605" stop-color="#33D478"/>
<stop offset="0.77418" stop-color="#FF8A46"/>
<stop offset="0.953975" stop-color="#FF61AD"/>
</linearGradient>
<linearGradient id="paint4_linear_1068_873" x1="158.099" y1="108.74" x2="163.301" y2="108.74" gradientUnits="userSpaceOnUse">
<stop offset="0.0503666" stop-color="#474AFB"/>
<stop offset="0.232942" stop-color="#BD4ABE"/>
<stop offset="0.409957" stop-color="#FCDC5D"/>
<stop offset="0.591605" stop-color="#33D478"/>
<stop offset="0.77418" stop-color="#FF8A46"/>
<stop offset="0.953975" stop-color="#FF61AD"/>
</linearGradient>
</defs>
</svg>
